<?xml version="1.0" encoding="UTF-8"?>
<svg width="130px" height="130px" viewBox="0 0 130 130" version="1.1" xmlns="http://www.w3.org/2000/svg" xmlns:xlink="http://www.w3.org/1999/xlink">
    <!-- Generator: Sketch 59.1 (86144) - https://sketch.com -->
    <title>ic_valdi</title>
    <desc>Created with Sketch.</desc>
    <defs>
        <rect id="path-1" x="0.415297911" y="0.164624658" width="131" height="130"></rect>
        <filter x="-5.3%" y="-3.8%" width="110.7%" height="110.8%" filterUnits="objectBoundingBox" id="filter-3">
            <feOffset dx="0" dy="2" in="SourceAlpha" result="shadowOffsetOuter1"></feOffset>
            <feGaussianBlur stdDeviation="2" in="shadowOffsetOuter1" result="shadowBlurOuter1"></feGaussianBlur>
            <feColorMatrix values="0 0 0 0 0   0 0 0 0 0   0 0 0 0 0  0 0 0 0.5 0" type="matrix" in="shadowBlurOuter1"></feColorMatrix>
        </filter>
    </defs>
    <g id="ic_valdi" stroke="none" stroke-width="1" fill="none" fill-rule="evenodd">
        <g id="Path-2" transform="translate(-2.000000, -1.000000)">
            <g id="Mask" transform="translate(0.584702, 0.835375)">
                <mask id="mask-2" fill="white">
                    <use xlink:href="#path-1"></use>
                </mask>
                <g>
                    <use fill="black" fill-opacity="1" filter="url(#filter-3)" xlink:href="#path-1"></use>
                    <use fill="#3E4653" fill-rule="evenodd" xlink:href="#path-1"></use>
                </g>
            </g>
            <polygon fill="#2D3541" points="106.18158 16.3228866 135.987153 46.0997213 137.642849 130.835375 60.2060224 131.305938 39.8431744 112.090268 54.1047021 68.9616753"></polygon>
        </g>
        <g id="Group-5" transform="translate(85.000000, 16.000000)">
            <path d="M0.934120878,16.5936808 C0.934120878,16.5936808 4.26181772,7.5633 12.7774329,1.90641272 C12.7774329,1.90641272 15.9341209,0.0041 18.5654202,0 C21.201253,0.185701441 23.1840491,9.82498841 18.5654202,24.9414617 C18.5654202,24.9414617 16.467291,31.2586348 8.70070595,35.9959 L0.5148,20.8794268 L0.934120878,16.5936808 Z" id="Stroke-1" stroke="#371F0E" stroke-width="2" fill="#F3F3F3"></path>
            <path d="M3.24665746,19.0258029 C9.79677635,7.03219547 17.5148,2.30146782 18.5654202,2.30146782 C23.2500942,1.13354948 19.9632691,21.1146245 18.5654202,24.9414617 C17.1675713,28.7682988 13.2736217,32.8504594 9.77316765,34.8165452 L3.24665746,19.0258029 Z" id="Stroke-3" stroke="#371F0E" stroke-width="2" fill="#7F6C5A"></path>
            <path d="" id="Path" stroke="#979797"></path>
        </g>
        <g id="Group-51" transform="translate(18.000000, 23.000000)">
            <path d="M20.5012,8.1482 C20.5012,8.1482 29.4382,8.5852 35.1052,14.4692 C35.1052,14.4692 50.7992,10.3282 61.2632,14.6882 C61.2632,14.6882 74.7782,8.3672 71.9442,14.9062 C71.9442,14.9062 69.1102,18.1752 70.2002,21.6632 C70.2002,21.6632 73.2522,26.4592 75.8682,36.2682 C75.8682,36.2682 78.0492,45.5842 76.5782,52.8372 C75.4442,58.4282 72.5972,78.3372 41.8632,70.4912 C41.8632,70.4912 26.9352,74.2992 21.4642,57.2412 C21.3032,56.7372 21.1042,55.8072 20.9102,54.7302 C20.5112,52.5182 19.0222,45.2372 20.4542,38.4202 C21.0872,35.3992 21.4082,32.0372 22.4622,29.7282 C22.4622,29.7282 27.0412,22.7532 27.0412,20.5732 C27.0412,18.3932 25.9502,14.4692 23.7702,12.7262 C21.5902,10.9822 16.1412,10.1102 13.7442,13.1622 C13.7442,13.1622 7.8582,21.0092 6.5502,24.0612 C6.5502,24.0612 4.3712,29.7282 1.5372,26.4592 C1.5372,26.4592 0.0062,24.9282 0.6642,20.9712 C0.7922,20.2052 1.9902,17.5162 3.1912,16.2742 C6.2672,13.0932 12.8202,7.5212 20.5012,8.1482 Z" id="Fill-1" fill="#F3F3F3"></path>
            <path d="M3.1912,16.2742 C6.2672,13.0932 12.8202,7.5212 20.5012,8.1482 C20.5012,8.1482 29.4382,8.5852 35.1052,14.4692 C35.1052,14.4692 50.7992,10.3282 61.2632,14.6882 C61.2632,14.6882 69.1102,18.1752 70.2002,21.6632 C70.2002,21.6632 73.2522,26.4592 75.8682,36.2682 C75.8682,36.2682 78.0492,45.5842 76.5782,52.8372 C75.4442,58.4282 72.5972,78.3372 41.8632,70.4912 C41.8632,70.4912 26.9352,74.2992 21.4642,57.2412 C21.3032,56.7372 21.1042,55.8072 20.9102,54.7302 C20.5112,52.5182 19.0222,45.2372 20.4542,38.4202 C21.0872,35.3992 21.4082,32.0372 22.4622,29.7282 C22.4622,29.7282 27.0412,22.7532 27.0412,20.5732 C27.0412,18.3932 25.9502,14.4692 23.7702,12.7262 C21.5902,10.9822 16.1412,10.1102 13.7442,13.1622 C13.7442,13.1622 7.8582,21.0092 6.5502,24.0612 C6.5502,24.0612 4.3712,29.7282 1.5372,26.4592 C1.5372,26.4592 0.0062,24.9282 0.6642,20.9712 C0.7922,20.2052 1.9902,17.5162 3.1912,16.2742 Z" id="Stroke-3" stroke="#371F0E" stroke-width="2"></path>
            <path d="M9.8565066,19.1970914 L20.9741,32.7373 L26.3051,23.1923 C26.3051,23.1923 28.6601,15.7543 22.9581,12.5323 C22.9581,12.5323 20.2227261,10.5130833 16.9708862,11.5264171 C15.7365854,11.9110482 14.4278757,12.732589 13.1661,14.2673 L9.8565066,19.1970914 Z" id="Fill-5" stroke="#371F0E" stroke-width="2" fill="#7F6C5A"></path>
            <path d="M17.8992,29.5809 L33.5632,29.5679 L76.9622033,29.5329 C76.9622033,29.5329 77.0422,6.0229 52.2322,0.9339 C52.2322,0.9339 37.9092,-2.6961 26.0862,11.0499 C26.0862,11.0499 21.0352,13.8369 17.8992,29.5809" id="Fill-9" fill="#FFFFFF"></path>
            <path d="M17.8992,29.5809 L33.5632,29.5679 L76.9622033,29.5329 C76.9622033,29.5329 77.0422,6.0229 52.2322,0.9339 C52.2322,0.9339 37.9092,-2.6961 26.0862,11.0499 C26.0862,11.0499 18.2410542,19.1201728 17.8992,29.5809 Z" id="Stroke-11" stroke="#371F0E" stroke-width="2" fill="#CDA682"></path>
            <path d="M18.574,29.3787 L31.467,29.8637 C31.467,29.8637 31.718,34.4317 26.291,37.2567 C25.483,37.6767 22.37,38.5607 20.733,38.6247 C17.6,38.7487 12.511,38.4537 9.429,35.6877 L18.574,29.3787 Z" id="Fill-21" fill="#FFFFFF"></path>
            <path d="M18.574,29.3787 L31.467,29.8637 C31.467,29.8637 31.718,34.4317 26.291,37.2567 C25.483,37.6767 22.37,38.5607 20.733,38.6247 C17.6,38.7487 12.511,38.4537 9.429,35.6877 L18.574,29.3787 Z" id="Stroke-23" stroke="#371F0E" stroke-width="2" fill="#CDA682"></path>
            <path d="M63.0857,29.8543 C63.0857,29.8543 64.5087,38.0853 74.3247,40.1093 C75.1697,40.2833 78.1347,40.2883 79.5467,39.9293 C81.5957,39.4103 84.3367,38.5503 85.4617,37.4583 C86.6837,36.2723 85.0657,35.0893 83.7577,34.3973 C83.0307,34.0123 80.8867,32.7623 80.8867,32.7623 L76.8777,30.0693 L63.0857,29.8543 Z" id="Fill-25" fill="#FFFFFF"></path>
            <path d="M63.0857,29.8543 C63.0857,29.8543 64.5087,38.0853 74.3247,40.1093 C75.1697,40.2833 78.1347,40.2883 79.5467,39.9293 C81.5957,39.4103 84.3367,38.5503 85.4617,37.4583 C86.6837,36.2723 85.0657,35.0893 83.7577,34.3973 C83.0307,34.0123 80.8867,32.7623 80.8867,32.7623 L76.8777,30.0693 L63.0857,29.8543 Z" id="Stroke-27" stroke="#371F0E" stroke-width="2" fill="#CDA682"></path>
            <path d="M60.49,45.2146 C60.49,48.1696 59.432,50.5666 58.13,50.5666 C56.826,50.5666 55.769,48.1696 55.769,45.2146 C55.769,42.2586 56.826,39.8616 58.13,39.8616 C59.432,39.8616 60.49,42.2586 60.49,45.2146" id="Fill-29" fill="#371F0E"></path>
            <path d="M39.241,45.1268 C39.241,48.0818 38.184,50.4788 36.881,50.4788 C35.577,50.4788 34.52,48.0818 34.52,45.1268 C34.52,42.1708 35.577,39.7738 36.881,39.7738 C38.184,39.7738 39.241,42.1708 39.241,45.1268" id="Fill-31" fill="#371F0E"></path>
            <path d="M53.4255,47.7938 C53.4255,47.7938 78.0575,46.4758 84.5965,66.6348 C84.5965,66.6348 86.5585,69.0838 80.2375,65.3158 C80.2375,65.3158 84.5965,74.1708 83.5065,77.7508 C83.5065,77.7508 81.7635,78.1278 78.7115,72.4758 C78.7115,72.4758 79.8015,80.7658 78.0575,83.7798 C78.0575,83.7798 75.4415,81.7078 75.4415,78.6928 C75.4415,78.6928 75.4415,85.4758 73.4805,87.5478 C73.4805,87.5478 70.4285,81.7078 70.6465,78.5048 C70.8635,75.3018 69.3385,77.5628 68.2475,79.2578 C67.1575,80.9538 65.8505,80.5768 65.1965,78.6928 C64.5425,76.8088 65.6325,65.6918 60.8365,62.6788 C56.0415,59.6638 49.2835,54.1998 49.2835,53.4458 C49.2835,52.6918 50.8105,47.7938 53.4255,47.7938" id="Fill-33" stroke="#371F0E" stroke-width="2" fill="#F3F3F3"></path>
            <path d="M44.2703,47.0398 C44.2703,47.0398 22.0373,45.3448 9.8303,67.0118 C9.8303,67.0118 9.3943,69.0838 13.3173,66.6348 L16.5873,64.5618 C16.5873,64.5618 8.92142036,71.2701451 11.7554204,76.3571451 C11.7554204,76.3571451 14.6253,77.7508 16.3693,72.2868 C16.3693,72.2868 14.4073,81.1428 16.5873,83.9688 C16.5873,83.9688 18.9853,84.1568 18.9853,78.5048 C18.9853,78.5048 19.9073,89.2728 21.3823,87.3588 C21.8193,86.7948 24.4343,80.7658 24.6523,77.5618 C24.8713,74.3588 25.9603,80.0118 27.4863,80.3888 C29.0123,80.7658 29.8833,78.6928 31.1923,70.2148 C32.4993,61.7358 43.6173,54.9528 43.6173,54.9528 C43.6173,54.9528 49.7203,53.2578 47.7583,49.6778 C45.7963,46.0988 44.2703,47.0398 44.2703,47.0398 Z" id="Stroke-39" stroke="#371F0E" stroke-width="2" fill="#F3F3F3"></path>
            <path d="M24.7146,65.2713 C24.6196,65.0253 24.5476,59.7753 24.5476,59.7753 L7.5816,60.7983 L7.7116,70.9663 C7.7116,70.9663 8.3936,78.6083 16.9396,77.6343 C16.9396,77.6343 24.2436,76.8843 31.1886,71.8983 C31.1886,71.8983 32.9746,70.7083 35.2096,69.2303 C37.1586,67.9403 46.7666,62.1823 48.2826,61.4953 C48.9746,61.1813 42.2446,56.0523 40.0776,57.1833 C38.5086,58.0013 35.1576,60.2263 35.1576,60.2263 L28.6846,64.4653 L25.9856,65.7133 L25.3236,65.4833 L24.7146,65.2713 Z" id="Fill-41" stroke="#232843" fill="#D8D8D8"></path>
            <path d="M24.7146,65.2713 C24.6196,65.0253 24.5476,59.7753 24.5476,59.7753 L7.5816,60.7983 L7.7116,70.9663 C7.7116,70.9663 8.3936,78.6083 16.9396,77.6343 C16.9396,77.6343 24.2436,76.8843 31.1886,71.8983 C31.1886,71.8983 32.9746,70.7083 35.2096,69.2303 C37.1586,67.9403 46.7666,62.1823 48.2826,61.4953 C48.9746,61.1813 42.2446,56.0523 40.0776,57.1833 C38.5086,58.0013 35.1576,60.2263 35.1576,60.2263 L28.6846,64.4653 L25.9856,65.7133 L25.3236,65.4833 L24.7146,65.2713 Z" id="Stroke-43" stroke="#371F0E" stroke-width="2" fill="#C7905E"></path>
            <path d="M33.3152,61.658 C33.3152,61.658 43.8352,48.372 58.8752,58.512 C58.8752,58.512 70.4282,67.406 63.8882,84.128 C63.8882,84.128 60.4012,87.863 59.7472,85.017 C59.0932,82.171 57.1312,87.33 56.4772,86.085 C55.8232,84.84 56.6952,81.103 56.6952,79.68 C56.6952,78.258 52.9902,86.44 51.9002,86.974 C50.8102,87.508 48.8482,84.305 48.8482,82.348 C48.8482,80.392 45.5792,85.017 45.3602,86.262 C45.1422,87.508 41.8732,86.44 41.4372,84.662 C41.0012,82.883 38.6032,81.46 38.6032,80.392 C38.6032,79.325 38.6032,85.195 37.7312,85.728 C36.8592,86.262 35.1152,86.44 34.6792,85.017 C34.2442,83.595 32.7172,85.373 32.7172,85.373 C32.7172,85.373 30.9732,82.171 30.9732,80.926 C30.9732,79.68 27.8662,70.553 33.3152,61.658 Z" id="Stroke-47" stroke="#371F0E" stroke-width="2" fill="#F3F3F3"></path>
            <path d="M42.3279,54.4861 C42.3279,54.4861 46.5129,60.8831 52.0919,55.1391 L55.1129,50.8311 C55.1129,50.8311 58.0189,45.7391 51.5109,45.4781 L43.2589,45.7391 C43.2589,45.7391 37.0989,45.7391 39.6549,50.8311 L42.3279,54.4861 Z" id="Fill-49" fill="#371F0E"></path>
        </g>
        <path d="M81.2691164,53.4997039 C81.2691164,53.4997039 81.9891268,35.2415761 67.2748378,23.4997039" id="Stroke-19" stroke="#371F0E" stroke-width="2"></path>
        <path d="M64.8708329,23.5002961 C50.8060872,29.8833745 50,52 50,52" id="Stroke-15" stroke="#371F0E" stroke-width="2"></path>
    </g>
</svg>